{
    "asset" : {
        "generator" : "Khronos glTF Blender I/O v1.8.19",
        "version" : "2.0"
    },
    "scene" : 0,
    "scenes" : [
        {
            "name" : "Scene",
            "nodes" : [
                0,
                1
            ]
        }
    ],
    "nodes" : [
        {
            "mesh" : 0,
            "name" : "Cube.001",
            "rotation" : [
                0.16745580732822418,
                0.16745580732822418,
                -0.6869924068450928,
                0.6869924068450928
            ],
            "scale" : [
                7.699071884155273,
                1,
                1
            ],
            "translation" : [
                -3.0215487480163574,
                0,
                -3.6711668968200684
            ]
        },
        {
            "mesh" : 1,
            "name" : "Cube",
            "rotation" : [
                0.17106464505195618,
                0.17106464505195618,
                -0.6861027479171753,
                0.6861027479171753
            ],
            "scale" : [
                3.30033540725708,
                1,
                1
            ],
            "translation" : [
                -2.919508934020996,
                4.898365497589111,
                -4.22145938873291
            ]
        }
    ],
    "materials" : [
        {
            "doubleSided" : true,
            "name" : "Bronze",
            "pbrMetallicRoughness" : {}
        }
    ],
    "meshes" : [
        {
            "name" : "Cube.003",
            "primitives" : [
                {
                    "attributes" : {
                        "POSITION" : 0,
                        "NORMAL" : 1,
                        "TEXCOORD_0" : 2,
                        "TEXCOORD_1" : 3
                    },
                    "indices" : 4,
                    "material" : 0
                }
            ]
        },
        {
            "name" : "Cube.004",
            "primitives" : [
                {
                    "attributes" : {
                        "POSITION" : 5,
                        "NORMAL" : 6,
                        "TEXCOORD_0" : 7,
                        "TEXCOORD_1" : 8
                    },
                    "indices" : 9,
                    "material" : 0
                }
            ]
        }
    ],
    "accessors" : [
        {
            "bufferView" : 0,
            "componentType" : 5126,
            "count" : 72,
            "max" : [
                1,
                1,
                4.671167373657227
            ],
            "min" : [
                -1,
                -1,
                -1
            ],
            "type" : "VEC3"
        },
        {
            "bufferView" : 1,
            "componentType" : 5126,
            "count" : 72,
            "type" : "VEC3"
        },
        {
            "bufferView" : 2,
            "componentType" : 5126,
            "count" : 72,
            "type" : "VEC2"
        },
        {
            "bufferView" : 3,
            "componentType" : 5126,
            "count" : 72,
            "type" : "VEC2"
        },
        {
            "bufferView" : 4,
            "componentType" : 5123,
            "count" : 108,
            "type" : "SCALAR"
        },
        {
            "bufferView" : 5,
            "componentType" : 5126,
            "count" : 24,
            "max" : [
                1,
                1,
                1
            ],
            "min" : [
                -1,
                -1,
                -1
            ],
            "type" : "VEC3"
        },
        {
            "bufferView" : 6,
            "componentType" : 5126,
            "count" : 24,
            "type" : "VEC3"
        },
        {
            "bufferView" : 7,
            "componentType" : 5126,
            "count" : 24,
            "type" : "VEC2"
        },
        {
            "bufferView" : 8,
            "componentType" : 5126,
            "count" : 24,
            "type" : "VEC2"
        },
        {
            "bufferView" : 9,
            "componentType" : 5123,
            "count" : 36,
            "type" : "SCALAR"
        }
    ],
    "bufferViews" : [
        {
            "buffer" : 0,
            "byteLength" : 864,
            "byteOffset" : 0
        },
        {
            "buffer" : 0,
            "byteLength" : 864,
            "byteOffset" : 864
        },
        {
            "buffer" : 0,
            "byteLength" : 576,
            "byteOffset" : 1728
        },
        {
            "buffer" : 0,
            "byteLength" : 576,
            "byteOffset" : 2304
        },
        {
            "buffer" : 0,
            "byteLength" : 216,
            "byteOffset" : 2880
        },
        {
            "buffer" : 0,
            "byteLength" : 288,
            "byteOffset" : 3096
        },
        {
            "buffer" : 0,
            "byteLength" : 288,
            "byteOffset" : 3384
        },
        {
            "buffer" : 0,
            "byteLength" : 192,
            "byteOffset" : 3672
        },
        {
            "buffer" : 0,
            "byteLength" : 192,
            "byteOffset" : 3864
        },
        {
            "buffer" : 0,
            "byteLength" : 72,
            "byteOffset" : 4056
        }
    ],
    "buffers" : [
        {
            "byteLength" : 4128,
            "uri" : "data:application/octet-stream;base64,"
        }
    ]
}
